<?xml version="1.0" standalone="no"?>
<!DOCTYPE svg PUBLIC "-//W3C//DTD SVG 20010904//EN"
 "http://www.w3.org/TR/2001/REC-SVG-20010904/DTD/svg10.dtd">
<svg version="1.0" xmlns="http://www.w3.org/2000/svg"
 width="260.000000pt" height="260.000000pt" viewBox="0 0 260.000000 260.000000"
 preserveAspectRatio="xMidYMid meet">
<metadata>
Created by potrace 1.11, written by Peter Selinger 2001-2013
</metadata>
<g transform="translate(0.000000,260.000000) scale(0.100000,-0.100000)"
fill="#000000" stroke="none">
<path d="M0 1300 l0 -1300 1300 0 1300 0 0 1300 0 1300 -1300 0 -1300 0 0
-1300z m1702 1171 c259 -71 400 -335 332 -621 -62 -265 -327 -540 -571 -590
-122 -26 -264 6 -291 65 -18 39 -15 134 6 175 16 33 19 35 62 32 173 -12 213
-8 283 25 201 95 312 344 239 534 -31 80 -122 131 -237 131 -226 1 -453 -206
-635 -577 -116 -238 -182 -485 -184 -690 -1 -178 32 -284 118 -373 83 -87 180
-117 355 -109 190 8 362 75 583 228 269 186 373 252 460 294 l93 46 3 -128 c2
-87 -1 -129 -8 -131 -30 -10 -164 -109 -240 -177 -191 -171 -292 -246 -425
-312 -169 -85 -352 -126 -570 -126 -126 0 -148 2 -222 27 -147 48 -284 158
-368 296 -73 121 -125 312 -125 463 0 306 161 744 383 1042 71 96 217 246 296
304 221 164 466 227 663 172z"/>
</g>
</svg>
