<?xml version="1.0" ?><!DOCTYPE svg  PUBLIC '-//W3C//DTD SVG 1.1//EN'  'http://www.w3.org/Graphics/SVG/1.1/DTD/svg11.dtd'><svg enable-background="new 0 0 512 512" height="512px" id="PictoFoundry_Icons" version="1.1" viewBox="0 0 512 512" width="512px" xml:space="preserve" xmlns="http://www.w3.org/2000/svg" xmlns:xlink="http://www.w3.org/1999/xlink"><g id="_x3C_Pill_x3E_"><path d="M496.537,118.24C474.664,78.619,432.926,54,387.625,54c-0.008,0-0.008,0-0.008,0h-0.01   c-20.891,0-41.639,5.357-60.008,15.502L64.221,214.896c-60.012,33.13-81.89,108.907-48.761,168.933   c21.887,39.631,63.62,64.25,108.916,64.25c20.891,0,41.644-5.367,60.017-15.502l263.388-145.403   C507.793,254.035,529.672,178.248,496.537,118.24z M78.281,275.367c-38.657,25.254-42.608,52.348-42.608,52.348   s-7.001-26.771,11.868-54.775c18.873-28.004,89.489-63.616,89.489-63.616l12.479,19.78   C149.509,229.104,116.942,250.105,78.281,275.367z M180.558,213.234l-13.145-18.502l25.655-14.412l19.627,14.43L180.558,213.234z    M429.778,254.57l-115.351,63.678c-1.066-19.984-6.129-48.711-22.502-82.082c-21.807-44.506-48.466-62.57-63.214-69.535   l116.89-64.527c13.342-7.367,27.781-10.867,42.006-10.867c30.696,0,60.445,16.252,76.327,45.006   C487.174,178.355,471.878,231.326,429.778,254.57z" fill="#FFFFFF"/></g></svg>